<svg xmlns="http://www.w3.org/2000/svg" version="1.1" xmlns:xlink="http://www.w3.org/1999/xlink" xmlns:svgjs="http://svgjs.com/svgjs" width="1000" height="1000"><rect width="1000" height="1000" rx="250" ry="250" fill="#ffffff"></rect><g transform="matrix(3.260869565217391,0,0,3.260869565217391,50,89.13043478260875)"><svg xmlns="http://www.w3.org/2000/svg" version="1.1" xmlns:xlink="http://www.w3.org/1999/xlink" xmlns:svgjs="http://svgjs.com/svgjs" width="276" height="252"><svg width="276" height="252" viewBox="0 0 276 252" fill="none" xmlns="http://www.w3.org/2000/svg">
<mask id="path-1-inside-1_209_735" fill="white">
<ellipse cx="92" cy="46.5" rx="46" ry="46.5"></ellipse>
</mask>
<path d="M69 46.5C69 34.7788 78.5961 24 92 24V162C156.214 162 207 109.584 207 46.5H69ZM92 24C105.404 24 115 34.7788 115 46.5H-23C-23 109.584 27.7859 162 92 162V24ZM115 46.5C115 58.2212 105.404 69 92 69V-69C27.7859 -69 -23 -16.5837 -23 46.5H115ZM92 69C78.5961 69 69 58.2212 69 46.5H207C207 -16.5837 156.214 -69 92 -69V69Z" fill="#C11711" mask="url(#path-1-inside-1_209_735)"></path>
<mask id="path-3-inside-2_209_735" fill="white">
<ellipse cx="184" cy="46.5" rx="46" ry="46.5"></ellipse>
</mask>
<path d="M161 46.5C161 34.7788 170.596 24 184 24V162C248.214 162 299 109.584 299 46.5H161ZM184 24C197.404 24 207 34.7788 207 46.5H69C69 109.584 119.786 162 184 162V24ZM207 46.5C207 58.2212 197.404 69 184 69V-69C119.786 -69 69 -16.5837 69 46.5H207ZM184 69C170.596 69 161 58.2212 161 46.5H299C299 -16.5837 248.214 -69 184 -69V69Z" fill="#C11711" mask="url(#path-3-inside-2_209_735)"></path>
<mask id="path-5-inside-3_209_735" fill="white">
<ellipse cx="138" cy="125.5" rx="46" ry="46.5"></ellipse>
</mask>
<path d="M115 125.5C115 113.779 124.596 103 138 103V241C202.214 241 253 188.584 253 125.5H115ZM138 103C151.404 103 161 113.779 161 125.5H23C23 188.584 73.7859 241 138 241V103ZM161 125.5C161 137.221 151.404 148 138 148V10C73.7859 10 23 62.4163 23 125.5H161ZM138 148C124.596 148 115 137.221 115 125.5H253C253 62.4163 202.214 10 138 10V148Z" fill="#C11711" mask="url(#path-5-inside-3_209_735)"></path>
<mask id="path-7-inside-4_209_735" fill="white">
<ellipse cx="230" cy="125.5" rx="46" ry="46.5"></ellipse>
</mask>
<path d="M207 125.5C207 113.779 216.596 103 230 103V241C294.214 241 345 188.584 345 125.5H207ZM230 103C243.404 103 253 113.779 253 125.5H115C115 188.584 165.786 241 230 241V103ZM253 125.5C253 137.221 243.404 148 230 148V10C165.786 10 115 62.4163 115 125.5H253ZM230 148C216.596 148 207 137.221 207 125.5H345C345 62.4163 294.214 10 230 10V148Z" fill="#C11711" mask="url(#path-7-inside-4_209_735)"></path>
<mask id="path-9-inside-5_209_735" fill="white">
<ellipse cx="184" cy="205.5" rx="46" ry="46.5"></ellipse>
</mask>
<path d="M161 205.5C161 193.779 170.596 183 184 183V321C248.214 321 299 268.584 299 205.5H161ZM184 183C197.404 183 207 193.779 207 205.5H69C69 268.584 119.786 321 184 321V183ZM207 205.5C207 217.221 197.404 228 184 228V90C119.786 90 69 142.416 69 205.5H207ZM184 228C170.596 228 161 217.221 161 205.5H299C299 142.416 248.214 90 184 90V228Z" fill="#C11711" mask="url(#path-9-inside-5_209_735)"></path>
<mask id="path-11-inside-6_209_735" fill="white">
<ellipse cx="92" cy="205.5" rx="46" ry="46.5"></ellipse>
</mask>
<path d="M69 205.5C69 193.779 78.5961 183 92 183V321C156.214 321 207 268.584 207 205.5H69ZM92 183C105.404 183 115 193.779 115 205.5H-23C-23 268.584 27.7859 321 92 321V183ZM115 205.5C115 217.221 105.404 228 92 228V90C27.7859 90 -23 142.416 -23 205.5H115ZM92 228C78.5961 228 69 217.221 69 205.5H207C207 142.416 156.214 90 92 90V228Z" fill="#C11711" mask="url(#path-11-inside-6_209_735)"></path>
<mask id="path-13-inside-7_209_735" fill="white">
<ellipse cx="46" cy="125.5" rx="46" ry="46.5"></ellipse>
</mask>
<path d="M23 125.5C23 113.779 32.5961 103 46 103V241C110.214 241 161 188.584 161 125.5H23ZM46 103C59.4039 103 69 113.779 69 125.5H-69C-69 188.584 -18.2141 241 46 241V103ZM69 125.5C69 137.221 59.4039 148 46 148V10C-18.2141 10 -69 62.4163 -69 125.5H69ZM46 148C32.5961 148 23 137.221 23 125.5H161C161 62.4163 110.214 10 46 10V148Z" fill="#C11711" mask="url(#path-13-inside-7_209_735)"></path>
</svg></svg></g></svg>